<svg width="360" height="427" viewBox="0 0 360 427" fill="none" xmlns="http://www.w3.org/2000/svg">
<rect y="42" width="360" height="385" rx="20" fill="white"/>
<path d="M54.1603 42.2917H36.8542C32.5164 42.2917 29 45.8081 29 50.1458C29 54.4836 32.5164 58 36.8542 58H227.304C243.321 58 256.304 45.0163 256.304 29C256.304 12.9837 243.321 0 227.304 0H127.32C114.15 0 101.521 5.24444 92.2251 14.5745L71.9839 34.8898C67.2628 39.6282 60.8492 42.2917 54.1603 42.2917Z" fill="white"/>
<path d="M305.866 42.0996L323.259 42.2321C327.59 42.2651 331.083 45.7851 331.083 50.1159C331.083 54.4702 327.554 58 323.199 58H222.395C206.379 58 193.395 45.0163 193.395 29C193.395 12.9837 206.379 0 222.395 0H235.805C247.032 0 257.801 4.452 265.751 12.3799L288.116 34.6825C292.832 39.3854 299.206 42.0488 305.866 42.0996Z" fill="white"/>
</svg>
