<svg width="296" height="296" viewBox="0 0 296 296" fill="none" xmlns="http://www.w3.org/2000/svg">
<path d="M181.294 225.561C167.645 228.26 136.921 223.898 117.866 186.96C119.173 186.162 118.938 183.099 115.105 184.525C104.433 187.605 96.7313 196.714 92.5378 206.67C92.403 206.987 95.0687 222.819 105.83 231.679C107.956 233.432 111.617 232.098 114.487 230.997C137.967 279.945 167.867 267.092 172.348 262.89C172.603 262.661 172.77 262.35 172.82 262.011C172.869 261.672 172.797 261.326 172.617 261.034C172.437 260.742 172.161 260.522 171.836 260.414C171.51 260.305 171.157 260.314 170.838 260.439C165.012 262.954 142.806 274.609 116.609 230.072C117.105 229.819 124.785 225.889 126.948 219.832C127.489 218.318 125.222 217.068 124.532 218.478C121.128 225.424 113.266 227.733 111.488 228.182C110.478 228.612 109.362 228.726 108.286 228.51C107.21 228.293 106.225 227.756 105.46 226.968C99.8343 221.462 94.876 207.084 94.876 207.084C100.445 198.773 106.151 189.786 116.505 187.349C131.892 226.818 168.558 232.396 182.061 227.828C183.255 227.424 182.568 225.31 181.294 225.561Z" fill="black"/>
<path d="M103.593 204.537C103.173 204.359 102.718 204.277 102.262 204.299C101.806 204.32 101.361 204.443 100.96 204.66C100.558 204.877 100.211 205.181 99.9425 205.55C99.6744 205.919 99.4929 206.344 99.4112 206.793C99.3138 207.772 99.4848 208.76 99.9058 209.65C100.327 210.54 100.982 211.298 101.801 211.844C102.247 212.034 102.732 212.112 103.215 212.071C103.697 212.029 104.162 211.87 104.569 211.607C104.975 211.344 105.311 210.986 105.547 210.562C105.782 210.139 105.911 209.665 105.92 209.181C106.096 208.259 105.963 207.304 105.543 206.465C105.122 205.625 104.437 204.948 103.593 204.537ZM103.082 208.858C103.036 209.337 102.997 209.468 102.535 209.178C102.198 208.934 101.724 206.98 102.682 207.428C103.05 207.55 103.114 208.382 103.07 208.86L103.082 208.858Z" fill="black"/>
<path d="M113.431 218.822C113.286 218.368 113.052 217.948 112.742 217.586C112.432 217.225 112.053 216.929 111.626 216.716C111.2 216.504 110.736 216.379 110.26 216.348C109.785 216.318 109.309 216.384 108.859 216.541C108.409 216.698 107.996 216.943 107.642 217.263C107.289 217.582 107.004 217.969 106.802 218.401C106.601 218.833 106.489 219.3 106.471 219.776C106.453 220.252 106.531 220.727 106.7 221.172C107.103 222.001 107.787 222.661 108.631 223.033C109.474 223.405 110.422 223.465 111.306 223.204C111.734 223.056 112.129 222.826 112.467 222.526C112.806 222.225 113.082 221.861 113.279 221.454C113.477 221.047 113.592 220.605 113.618 220.153C113.644 219.701 113.581 219.249 113.431 218.822ZM110.279 220.798C109.836 220.98 109.043 220.06 110.006 219.41C110.431 219.108 110.637 219.253 110.767 219.763C110.837 219.965 110.825 220.186 110.734 220.379C110.644 220.572 110.481 220.722 110.282 220.798L110.279 220.798Z" fill="black"/>
<path d="M89.5176 167.355C87.6263 173.381 94.246 181.954 100.77 179.728C101.034 179.645 101.264 179.48 101.428 179.258C101.591 179.035 101.679 178.766 101.679 178.49C101.679 178.213 101.591 177.944 101.428 177.722C101.264 177.499 101.034 177.334 100.77 177.252C98.5363 176.527 91.8748 175.957 91.8143 167.651C91.8199 167.364 91.7194 167.085 91.532 166.867C91.3446 166.65 91.0835 166.509 90.7988 166.472C90.5139 166.436 90.2257 166.506 89.9893 166.669C89.7529 166.831 89.585 167.076 89.5176 167.355Z" fill="black"/>
<path d="M94.3878 160.909C93.1407 166.853 98.5388 174.404 106.376 173.903C107.717 173.818 108.101 172.118 106.602 171.727C103.602 170.944 96.0925 168.602 96.6485 161.207C96.6127 160.976 96.4874 160.757 96.2938 160.587C96.1 160.416 95.8495 160.304 95.5845 160.269C95.3195 160.234 95.0559 160.278 94.838 160.395C94.6202 160.512 94.4612 160.693 94.3878 160.909Z" fill="black"/>
<path d="M98.001 157.87C98.234 163.926 105.715 167.862 108.017 167.653C108.331 167.641 108.633 167.529 108.879 167.331C109.124 167.134 109.299 166.863 109.377 166.558C109.456 166.253 109.434 165.931 109.314 165.64C109.195 165.349 108.985 165.104 108.715 164.942C107.891 164.413 101.646 162.645 100.822 157.048C100.652 155.161 97.5887 155.986 98.001 157.87Z" fill="black"/>
<path d="M85.6211 173.118C85.5265 178.396 89.5664 185.423 95.6852 184.892C97.0395 184.773 96.8652 183.045 95.8923 182.528C93.8446 181.449 88.1631 180.038 87.9371 173.034C87.8936 171.726 85.6466 171.743 85.6211 173.118Z" fill="black"/>
<path d="M84.0971 179.49C81.8457 182.085 79.8159 184.865 78.0297 187.801C76.7927 189.862 75.9845 192.193 78.2626 193.868C82.2989 196.831 89.7199 191.04 89.692 186.68C89.6876 186.518 89.6465 186.358 89.5713 186.214C89.4961 186.07 89.3893 185.945 89.2584 185.849C89.1278 185.752 88.9769 185.687 88.817 185.657C88.6574 185.628 88.4929 185.635 88.3363 185.679C86.976 186.193 82.476 193.195 80.5591 190.803C79.7485 189.79 84.7168 182.457 85.744 180.787C86.3565 179.797 84.8565 178.602 84.0971 179.49Z" fill="#288CFF"/>
<path d="M143.893 138.37C141.651 132.24 137.846 126.802 132.854 122.596C127.863 118.39 121.858 115.562 115.437 114.393C111.801 116.899 108.72 120.129 106.389 123.88C104.058 127.631 102.525 131.822 101.888 136.192C100.669 141.191 101.363 146.464 103.833 150.978C108.244 157.816 118.029 158.219 125.758 155.573C135.172 152.334 143.893 138.37 143.893 138.37Z" fill="#288CFF"/>
<path d="M133.82 115.749C139.44 115.125 141.634 121.679 138.532 125.881C136.269 122.58 133.154 119.954 129.518 118.283C129.948 117.52 130.573 116.883 131.328 116.439C132.084 115.993 132.943 115.756 133.82 115.749Z" fill="#288CFF"/>
<path d="M86.336 136.132C84.3795 123.95 89.5295 113.166 97.8237 104.497C98.774 103.504 97.5279 101.669 96.2911 102.554C85.8563 110.024 81.6451 124.477 84.1559 136.721C84.4471 138.137 86.5644 137.548 86.336 136.132Z" fill="#288CFF"/>
<path d="M71.1375 129.475C70.6372 123.045 71.1943 116.578 72.7866 110.329C72.8613 110.02 72.8126 109.694 72.6512 109.42C72.49 109.147 72.2282 108.947 71.9219 108.863C71.6155 108.778 71.2885 108.817 71.0099 108.97C70.7313 109.122 70.5233 109.378 70.4294 109.681C68.3035 116.05 67.5603 122.8 68.2493 129.479C68.3984 131.359 71.31 131.361 71.1375 129.475Z" fill="#288CFF"/>
<path d="M138.696 170.681C150.307 168.546 162.238 160.106 165.474 148.198C165.83 146.886 163.639 146.231 163.27 147.479C159.348 160.776 144.197 167.274 138.469 168.418C137.096 168.692 137.266 170.944 138.696 170.681Z" fill="#288CFF"/>
<path d="M154.901 175.329C156.57 174.224 162.933 170.026 164.259 168.717C164.419 168.529 164.513 168.295 164.526 168.049C164.539 167.803 164.471 167.56 164.333 167.356C164.194 167.153 163.993 167.001 163.759 166.923C163.526 166.845 163.273 166.846 163.04 166.926C161.399 167.699 155.131 172.11 153.449 173.193C152.046 174.097 153.49 176.274 154.901 175.329Z" fill="#288CFF"/>
<path d="M166.28 81.1322C173.374 72.1551 206.93 33.4696 210.573 28.8948C211.437 27.8089 210.03 26.08 208.864 27.0746C200.325 34.3519 170.917 69.997 164.545 79.7319C163.802 80.866 165.367 82.2861 166.28 81.1322Z" fill="#288CFF"/>
<path d="M175.737 103.348C191.691 94.3953 208.296 86.723 224.738 78.8716C225.993 78.2705 225.291 76.272 223.963 76.8488C206.966 84.1022 190.41 92.353 174.386 101.558C173.237 102.228 174.531 104.035 175.737 103.348Z" fill="#288CFF"/>
<path d="M138.89 72.4518C144.924 55.1811 149.584 37.4932 154.448 19.9345C154.821 18.5934 156.912 18.9366 156.575 20.3447C152.396 38.346 147.159 56.0868 140.889 73.4705C140.429 74.7182 138.424 73.7594 138.89 72.4518Z" fill="#288CFF"/>
<path d="M182.22 124.054C187.646 122.617 193.216 121.474 198.482 119.581C199.58 119.185 199.227 117.307 198.002 117.535C192.411 118.734 186.884 120.215 181.44 121.973C180.097 122.353 180.879 124.408 182.22 124.054Z" fill="#288CFF"/>
<path d="M117.371 69.6779C117.84 64.085 117.995 58.4013 118.94 52.8851C119.139 51.7349 121.05 51.7558 121.039 53.0014C120.833 58.7161 120.338 64.4166 119.556 70.083C119.417 71.4717 117.257 71.06 117.371 69.6779Z" fill="#288CFF"/>
</svg>
