<svg width="296" height="296" viewBox="0 0 296 296" fill="none" xmlns="http://www.w3.org/2000/svg">
<path d="M225.2 86.6145C219.857 80.4021 204.894 83.3229 197.3 86.6747C196.583 86.9919 197.133 87.9733 197.799 87.8572C202.269 87.0768 206.534 85.5428 211.092 85.188C214.782 84.9031 220.842 85.2396 223.337 87.8594C226.124 90.7866 225.65 95.9713 224.647 99.5274C221.451 110.88 211.157 116.45 202.19 129.074C192.529 142.513 187.419 158.691 187.609 175.241C187.609 175.288 187.628 175.334 187.661 175.367C187.694 175.4 187.739 175.419 187.786 175.419C187.834 175.419 187.879 175.4 187.912 175.367C187.945 175.334 187.964 175.288 187.964 175.241C189.004 158.442 194.905 142.307 204.949 128.801C212.581 118.714 225.4 110.492 227.371 97.5473C227.925 93.9009 227.724 89.5493 225.2 86.6145Z" fill="black"/>
<path d="M167.745 96.8494C166.489 98.6919 166.043 101.376 165.417 103.497C165.173 104.326 164.373 106.391 165.964 106.351C166.046 106.348 166.124 106.317 166.185 106.262C166.245 106.206 166.284 106.132 166.295 106.051C166.306 105.969 166.288 105.887 166.244 105.818C166.2 105.749 166.133 105.697 166.055 105.673C164.972 105.293 168.098 98.1007 168.148 96.9601C168.15 96.9119 168.135 96.8645 168.106 96.8257C168.078 96.7868 168.037 96.7587 167.99 96.746C167.944 96.7332 167.894 96.7364 167.85 96.7552C167.805 96.7739 167.768 96.8071 167.745 96.8494Z" fill="black"/>
<path d="M165.956 108.925C164.16 108.748 162.652 109.773 161.307 110.82C161.201 110.904 161.268 111.139 161.399 111.077C162.63 110.501 164.433 109.835 164.459 109.832C164.409 110.363 164.505 110.897 164.735 111.378C164.965 111.858 165.321 112.267 165.766 112.561C166.28 112.904 166.884 113.088 167.503 113.088C168.121 113.089 168.725 112.908 169.24 112.566C169.36 112.481 169.449 112.36 169.493 112.22C169.537 112.08 169.534 111.93 169.486 111.792C169.221 111.034 168.751 110.364 168.128 109.858C167.505 109.351 166.753 109.028 165.956 108.925Z" fill="black"/>
<path d="M169.336 101.041C169.045 101.594 168.939 102.226 169.033 102.845C169.074 103.012 169.171 103.16 169.308 103.264C169.445 103.368 169.613 103.423 169.786 103.418C170.495 103.338 170.677 101.707 170.538 101.199C170.498 101.079 170.425 100.973 170.328 100.892C170.23 100.812 170.112 100.76 169.987 100.744C169.861 100.728 169.734 100.747 169.619 100.799C169.504 100.852 169.406 100.935 169.336 101.041Z" fill="black"/>
<path d="M173.919 99.7708C173.5 98.3496 171.667 97.4165 170.445 96.7758C170.394 96.7475 170.335 96.7348 170.277 96.7391C170.219 96.7434 170.163 96.7646 170.117 96.8001C170.071 96.8356 170.036 96.8838 170.016 96.9389C169.997 96.994 169.994 97.0535 170.008 97.1101C170.203 97.8272 170.895 98.2077 171.454 98.6216C172.064 99.1923 172.732 99.6967 173.448 100.127C173.503 100.157 173.565 100.171 173.628 100.167C173.69 100.162 173.75 100.14 173.8 100.102C173.85 100.064 173.887 100.013 173.909 99.9542C173.93 99.8954 173.933 99.8316 173.919 99.7708Z" fill="black"/>
<path d="M164.406 96.7383C163.754 96.8768 163.139 97.1555 162.605 97.5553C162.013 97.837 161.484 98.2356 161.05 98.7271C161.018 98.7843 161 98.849 161 98.9149C161 98.9807 161.017 99.0455 161.05 99.1028C161.082 99.16 161.129 99.2078 161.186 99.2415C161.243 99.2751 161.307 99.2935 161.373 99.2947C162.018 99.1645 162.63 98.906 163.173 98.5347C163.785 98.276 164.333 97.8854 164.776 97.3909C164.814 97.3252 164.833 97.2509 164.834 97.1753C164.834 97.0996 164.814 97.0253 164.777 96.9595C164.739 96.8937 164.686 96.8387 164.621 96.8C164.556 96.7612 164.482 96.74 164.406 96.7383Z" fill="black"/>
<path d="M162.694 100.757C161.982 100.888 161.813 102.355 162.206 102.983C162.243 103.044 162.294 103.097 162.355 103.136C162.416 103.175 162.484 103.2 162.556 103.209C162.627 103.219 162.7 103.212 162.769 103.189C162.837 103.166 162.9 103.129 162.952 103.079C163.508 102.597 163.925 100.522 162.694 100.757Z" fill="black"/>
<path d="M157.954 98.248C157.952 98.1855 157.931 98.1251 157.892 98.076C157.853 98.0269 157.8 97.9916 157.739 97.9755C157.679 97.9593 157.615 97.963 157.557 97.9862C157.498 98.0093 157.449 98.0506 157.417 98.104C156.326 99.9315 156.161 102.673 156.234 104.757C156.369 108.603 157.727 112 160.907 114.217C160.781 115.307 160.849 116.412 161.109 117.478C161.142 117.534 161.188 117.58 161.244 117.611C161.3 117.643 161.363 117.66 161.427 117.66C161.491 117.66 161.554 117.643 161.61 117.611C161.666 117.58 161.712 117.534 161.745 117.478C161.982 116.628 162.062 115.742 161.981 114.863C163.288 115.577 164.816 115.769 166.259 115.401C166.306 115.386 166.347 115.356 166.377 115.316C166.406 115.276 166.422 115.228 166.422 115.178C166.422 115.128 166.406 115.08 166.377 115.04C166.347 115 166.306 114.97 166.259 114.955C160.409 113.671 157.474 109.777 157.483 103.748C157.487 101.913 158.042 100.072 157.954 98.248Z" fill="black"/>
<path d="M137.154 103.393C134.292 100.012 133.953 98.706 132.639 97.6418C132.585 97.5912 132.516 97.5594 132.442 97.551C132.369 97.5427 132.295 97.5582 132.231 97.5954C132.167 97.6326 132.116 97.6894 132.087 97.7574C132.058 97.8254 132.052 97.9009 132.069 97.9729C132.526 100.197 134.511 102.273 135.929 103.993C140.776 109.915 147.049 114.506 154.159 117.335C154.625 117.528 154.968 116.725 154.505 116.518C147.838 113.453 141.918 108.975 137.154 103.393Z" fill="black"/>
<path d="M138.462 96.3419C138.57 98.5177 138.99 101.107 140.481 102.801C139.415 102.671 138.36 102.463 137.325 102.178C137.28 102.166 137.233 102.172 137.193 102.195C137.154 102.218 137.124 102.256 137.112 102.3C137.1 102.344 137.107 102.392 137.129 102.432C137.152 102.471 137.19 102.5 137.234 102.512C138.839 103.068 140.538 103.418 142.118 104.024C142.248 104.057 142.385 104.046 142.508 103.994C142.631 103.943 142.734 103.852 142.801 103.737C142.869 103.621 142.896 103.487 142.881 103.354C142.865 103.221 142.806 103.097 142.714 103.001C140.408 101.126 139.88 98.6897 139.75 95.8162C139.551 93.5145 139.882 91.1976 140.717 89.0437C140.788 88.8653 140.555 88.7288 140.411 88.8083C137.96 90.165 138.344 94.0307 138.462 96.3419Z" fill="black"/>
<path d="M156.108 96.328C153.909 96.8387 152.652 97.7374 148.598 97.5417C144.545 97.3461 142.314 96.0464 140.51 96.0303C140.455 96.0317 140.403 96.0508 140.36 96.0847C140.316 96.1185 140.285 96.1653 140.271 96.2181C140.257 96.271 140.26 96.327 140.28 96.378C140.3 96.429 140.336 96.4721 140.382 96.5011C141.094 96.9857 141.885 97.3429 142.719 97.5568C142.785 97.9029 143.207 99.7605 143.241 99.9809C143.292 100.339 143.871 100.316 143.941 99.9809C144.134 99.2716 144.081 98.5181 143.791 97.8427C145.515 98.3331 147.286 98.6411 149.075 98.7618C151.508 98.8865 154.557 98.6006 156.461 96.9343C156.75 96.686 156.441 96.2517 156.108 96.328Z" fill="black"/>
<path d="M140.857 89.474C144.835 91.3391 151.003 93.7621 153.714 90.764C153.797 90.6799 153.85 90.5709 153.865 90.4537C153.88 90.3366 153.856 90.2178 153.796 90.1158C153.737 90.0137 153.645 89.9341 153.536 89.8892C153.427 89.8443 153.306 89.8367 153.192 89.8674C152.317 90.2365 151.425 90.5612 150.517 90.8403C147.937 91.3778 146.54 90.6403 141.034 89.0472C140.79 88.9827 140.616 89.36 140.857 89.474Z" fill="black"/>
<path d="M120.888 118.453C123.072 121.079 131.445 131.216 133.863 133.148C132.698 138.42 131.805 143.749 131.187 149.112C130.387 156.074 129.53 168.87 130.219 175.863C130.227 176.093 130.324 176.31 130.489 176.47C130.655 176.63 130.875 176.719 131.105 176.719C131.335 176.719 131.556 176.63 131.721 176.47C131.887 176.31 131.984 176.093 131.992 175.863C132.116 169.238 130.632 151.49 137.219 123.441C137.248 123.332 137.232 123.216 137.175 123.119C137.119 123.021 137.026 122.95 136.918 122.92C136.809 122.89 136.693 122.904 136.594 122.958C136.496 123.013 136.422 123.104 136.391 123.213C135.563 126.085 134.816 128.973 134.15 131.877C132.698 130.243 117.647 112.789 115.67 107.797C113.807 103.302 113.277 98.3662 114.144 93.5783C115.756 86.0759 123.737 85.2696 131.263 86.6467C133.858 87.1197 136.365 87.9765 138.975 88.3484C139.318 88.3968 139.607 87.9184 139.235 87.7324C134.439 85.7222 129.276 84.7379 124.078 84.8428C119.857 85.0697 115.58 86.5757 113.689 90.6392C111.745 94.8145 112.214 100.183 113.259 104.528C114.564 109.945 117.375 114.23 120.888 118.453Z" fill="black"/>
<path d="M205.418 155.016C205.06 171.667 204.779 172.131 205.234 175.196C205.302 175.647 206.037 175.626 206.121 175.196C206.84 171.606 207.196 144.943 207.256 141.177C207.279 139.804 207.316 139.044 205.849 138.819C203.974 138.519 202.085 138.318 200.189 138.215C200.074 138.218 199.965 138.261 199.88 138.337C199.794 138.413 199.739 138.517 199.724 138.63C199.708 138.743 199.734 138.858 199.795 138.954C199.857 139.05 199.951 139.121 200.061 139.154C201.615 139.546 203.345 139.584 204.859 140.067C205.934 140.408 205.732 141.023 205.708 142.024C205.685 142.87 205.493 151.534 205.418 155.016Z" fill="black"/>
<path d="M220.439 184.954C212.748 184.456 204.959 184.961 197.245 185.084C189.514 185.207 110.863 185.745 102.19 186.059C102.138 186.063 102.09 186.086 102.055 186.124C102.019 186.162 102 186.212 102 186.264C102 186.316 102.019 186.366 102.055 186.404C102.09 186.442 102.138 186.465 102.19 186.469C123.523 187.612 173.072 187.136 194.415 186.811C203.053 186.68 211.846 186.953 220.436 186.026C220.571 186.016 220.697 185.955 220.79 185.856C220.882 185.757 220.933 185.627 220.934 185.491C220.934 185.356 220.883 185.225 220.792 185.126C220.7 185.026 220.574 184.965 220.439 184.954Z" fill="black"/>
<path d="M149 192.751C146.516 192.59 144.776 194.031 143.393 196.09C141.068 199.558 141.976 202.719 143.757 203.56C146.063 204.635 147.734 203.6 149.06 202.102C150.392 200.792 151.319 199.127 151.732 197.305C152.057 195.122 151.348 192.9 149 192.751ZM143.36 199.54C143.613 199.265 143.925 199.05 144.273 198.913C144.621 198.775 144.995 198.719 145.368 198.747C144.832 199.909 144.559 201.174 144.567 202.454C144.075 202.167 143.69 201.727 143.472 201.201C143.254 200.674 143.215 200.091 143.36 199.54ZM145.447 202.672C145.27 201.343 145.507 199.991 146.127 198.802C146.657 198.873 147.164 199.061 147.611 199.353C148.059 199.645 148.436 200.033 148.715 200.49C147.853 201.549 146.795 202.746 145.447 202.672Z" fill="black"/>
<path d="M66.0073 171.152C66.372 171.119 66.5229 170.533 66.1011 170.458C61.8147 169.695 43.4104 168.877 41.429 168.997C41.2792 166.253 39.4167 156.746 36.9105 140.854C35.486 131.812 34.3952 122.726 33.0792 113.67C95.1418 112.912 98.5924 112.902 108.521 112.443C108.796 114.723 109.224 116.982 109.803 119.205C113.886 139.593 116.728 164.33 118.531 171.848C118.31 171.911 95.5351 171.857 90.2472 171.908C90.1671 171.908 90.0903 171.94 90.0337 171.997C89.9771 172.054 89.9453 172.131 89.9453 172.21C89.9453 172.29 89.9771 172.367 90.0337 172.424C90.0903 172.481 90.1671 172.512 90.2472 172.512C95.3636 173.06 100.461 173.489 105.607 173.696C108.044 173.794 119.09 174.216 120.077 173.604C120.251 173.509 120.39 173.361 120.477 173.184C120.563 173.005 120.592 172.804 120.559 172.608C120.393 169.513 118.653 161.2 118.057 157.343C117.274 152.312 116.536 147.281 115.713 142.251C114.877 137.141 110.123 113.334 109.453 111.657C109.409 111.501 109.318 111.363 109.192 111.262C109.066 111.161 108.911 111.102 108.75 111.093C88.4601 110.658 52.7869 111.894 32.8197 111.787C32.0777 111.787 31.8822 112.062 31.8421 112.625C31.3847 119.067 37.1758 155.432 38.198 161.887C38.4877 164.432 38.9147 166.96 39.4773 169.458C39.7117 170.314 39.1343 170.462 52.9218 171.091C57.2774 171.402 61.649 171.422 66.0073 171.152Z" fill="black"/>
<path d="M151.055 209.464C143.353 208.879 135.601 208.68 127.886 208.303C124.094 208.118 104.836 207.366 104.46 207.545C104 207.764 100.287 212.315 98.8877 214.266C98.1972 213.255 97.2633 212.434 96.1725 211.88C93.8477 210.628 91.2072 210.091 88.5803 210.335C88.5932 207.963 87.3113 196.902 86.7427 193.768C85.8097 188.623 82.9715 167.759 80.9801 162.953C80.159 160.972 78.7941 157.807 76.4481 157.241C73.9098 156.628 72.9166 159.652 72.4582 161.52C70.9502 167.667 72.1188 186.633 72.4582 192.902C72.8065 199.36 73.8359 209.048 75.3535 214.832C75.4275 215.117 75.9165 215.073 75.882 214.76C75.1018 207.847 71.7553 180.141 72.9794 166.747C73.104 165.368 73.7836 160.029 74.9804 158.974C77.2033 157.017 79.5445 162.971 80.0576 164.346C83.013 172.94 85.7971 194.182 86.729 203.226C87.0008 206.491 87.1126 209.786 87.637 213.019C86.1306 215.466 83.3655 215.782 80.6753 216.429C80.5776 216.46 80.494 216.524 80.4392 216.611C80.3842 216.698 80.3617 216.801 80.3755 216.903C80.3892 217.005 80.4384 217.098 80.5143 217.167C80.5903 217.236 80.6881 217.276 80.7903 217.279C83.8465 217.279 88.2627 216.186 88.6721 212.516C88.6769 211.984 88.6443 211.451 88.5747 210.923C90.5331 211.454 92.555 211.605 94.4651 212.395C96.3897 213.194 99.0035 214.953 98.1928 217.424C96.4766 222.646 77.5234 224.278 68.9879 219.603C67.5402 218.809 65.7072 217.631 65.996 215.728C66.4182 212.942 69.1704 211.724 71.5124 210.932C71.5864 210.907 71.6482 210.854 71.6849 210.785C71.7217 210.716 71.7307 210.636 71.7101 210.56C71.6895 210.485 71.6409 210.42 71.5741 210.38C71.5075 210.338 71.4278 210.326 71.3516 210.342C68.9686 210.68 66.641 211.743 65.4274 213.93C64.9069 214.738 64.6932 215.708 64.8252 216.661C64.9572 217.614 65.4261 218.488 66.1464 219.124C71.8904 224.523 87.0627 224.804 94.6091 221.926C96.5465 221.185 98.743 220.029 99.4427 217.915C99.6068 217.432 99.6745 216.919 99.6421 216.409C106.445 217.639 143.864 219.078 145.799 218.88C146.786 217.827 147.686 216.695 148.49 215.496C149.627 213.911 150.676 212.218 151.853 210.661C152.358 209.982 151.425 209.492 151.055 209.464ZM145.272 213.876C145.047 213.865 142.598 213.731 139.601 213.565C138.885 214.701 138.08 215.779 137.193 216.786C136.934 217.029 136.45 216.747 136.595 216.395C137.133 215.389 137.74 214.422 138.41 213.499C133.539 213.23 126.944 212.902 125.819 212.864C125.159 213.892 124.434 214.876 123.647 215.809C123.593 215.849 123.528 215.871 123.46 215.871C123.392 215.871 123.326 215.849 123.272 215.809C123.219 215.768 123.179 215.711 123.159 215.646C123.14 215.581 123.142 215.511 123.165 215.447C123.242 215.277 124.006 214.069 124.814 212.829C121.765 212.724 116.939 212.536 112.738 212.359C112.157 213.354 111.499 214.304 110.771 215.198C110.54 215.428 109.782 215.394 109.859 215.079C110.373 214.102 110.98 213.177 111.671 212.317C107.817 212.155 104.711 212.005 104.384 211.955C104.057 211.903 103.64 211.273 103.937 211.147C104.119 211.07 107.544 211.19 112.356 211.4C113.103 210.416 113.793 209.558 114.054 209.301C114.375 208.993 114.869 209.506 114.596 209.836C114.368 210.112 113.814 210.865 113.39 211.442C116.961 211.604 121.173 211.804 125.347 212.015C125.958 211.093 126.512 210.284 126.719 210.039C126.787 209.953 126.885 209.898 126.994 209.883C127.101 209.869 127.211 209.898 127.298 209.963C127.385 210.028 127.444 210.125 127.461 210.233C127.479 210.341 127.455 210.452 127.392 210.541C127.292 210.686 126.881 211.301 126.363 212.066C130.982 212.299 135.487 212.537 138.954 212.728C139.59 211.716 140.377 210.806 141.286 210.032C141.313 210.02 141.342 210.015 141.372 210.016C141.402 210.018 141.429 210.028 141.454 210.045C141.479 210.061 141.499 210.083 141.512 210.109C141.526 210.135 141.533 210.164 141.532 210.193C141.168 211.117 140.689 211.991 140.105 212.794C143.161 212.964 145.183 213.088 145.378 213.117C145.814 213.194 145.701 213.9 145.272 213.876Z" fill="black"/>
<path d="M165.065 127.847C165.065 127.719 164.087 127.792 163.256 127.653C162.503 127.529 161.904 127.172 161.795 127.322C147.605 146.713 151.73 166.359 151.73 166.359C153.883 169.112 156.404 171.556 159.223 173.623C161.024 170.945 162.825 168.268 164.623 165.59C162.688 160.519 162.258 155.014 161.889 149.597C161.455 144.862 161.69 140.089 162.586 135.419C163.193 132.829 164.023 130.295 165.065 127.847Z" fill="#288CFF"/>
<path d="M205.617 95.5487C200.242 97.8062 195.452 101.856 191.348 105.94C185.738 111.53 182.485 117.863 178.603 116.896C178.557 115.918 177.808 115.391 177.263 114.65C177.699 112.966 177.992 111.249 178.14 109.516C178.31 108.549 179.186 104.559 179.51 103.583C180.374 101.38 181.355 99.2248 182.448 97.1257C183.792 97.148 185.135 97.0185 186.45 96.7398C187.193 96.5707 187.9 96.27 188.538 95.8518C189.367 95.5188 190.253 95.3494 191.147 95.353C191.147 95.353 190.458 99.7207 191.427 100.798C192.378 101.854 193.943 101.26 195.123 101.059C195.628 100.971 195.608 100.294 195.253 100.055C193.834 99.0876 191.559 101.272 192.956 94.6467C193.527 91.9575 194.67 89.4228 196.309 87.2153C196.436 87.0508 196.176 86.8863 196.036 87.0003C195.262 87.6464 194.545 88.357 193.892 89.1245C191.271 89.1245 189.561 89.9587 185.761 89.0514C186.819 88.3075 188.569 86.6541 188.838 86.8928C187.149 85.4084 185.146 84.3253 182.979 83.7247C184.056 82.5533 185.458 81.7299 187.006 81.3597C184.091 80.4091 180.99 80.1775 177.967 80.6846C178.641 78.8833 179.712 77.2567 181.101 75.9256C178.86 76.0922 176.683 76.745 174.72 77.8387C172.758 78.9324 171.057 80.4406 169.737 82.2584C169.703 79.5598 170.712 76.9521 172.552 74.9785C170.517 75.5798 168.645 76.6338 167.075 78.0616C165.505 79.4893 164.279 81.2537 163.488 83.2227C162.36 81.5712 161.854 79.5736 162.059 77.5843C161.21 78.4359 160.553 79.4594 160.132 80.5861C159.712 81.7127 159.537 82.9163 159.62 84.116L156.75 80.6502C155.47 85.5526 155.973 90.75 158.168 95.3165C159.144 93.2644 160.859 91.656 162.969 90.8122C162.328 90.4859 161.764 90.0288 161.311 89.4705C160.858 88.9122 160.527 88.2651 160.34 87.5711C163.818 91.1249 168.207 93.6538 173.025 94.8811C174.042 95.0361 175.005 95.4377 175.831 96.0507C177.924 97.9459 176.545 101.507 176.369 103.736C176.294 104.703 176.192 106.531 177.336 107.283C176.827 109.398 176.531 111.559 176.454 113.733C176.298 113.704 166.34 121.674 166.189 122.176C166.039 122.678 167.217 128.935 167.208 130.353C167.21 130.455 167.242 130.555 167.3 130.639C167.358 130.724 167.439 130.79 167.534 130.829C167.628 130.869 167.733 130.88 167.833 130.861C167.934 130.843 168.028 130.795 168.102 130.725C170.815 127.52 173.498 124.29 176.15 121.033C177.067 120.114 177.833 119.057 178.42 117.899C179.724 118.94 182.461 117.703 183.527 116.918C187.628 113.897 189.09 109.824 197.527 102.955C200.278 100.718 203.259 98.8177 206.077 96.6796C206.587 96.2969 206.324 95.2509 205.617 95.5487ZM177.167 94.4221C175.656 92.9769 174.315 91.3632 173.171 89.6125C173.134 89.5505 173.083 89.4977 173.023 89.458C172.963 89.4183 172.894 89.3929 172.823 89.3836C172.751 89.3742 172.678 89.3813 172.61 89.4042C172.542 89.4271 172.479 89.4653 172.428 89.5158C171.986 90.0006 171.155 91.0132 170.347 90.5112C169.594 90.0404 170.04 89.3964 170.4 88.8987C170.833 88.3566 171.308 87.8501 171.821 87.384C172.9 88.2925 174.127 89.0092 175.448 89.5029C175.517 89.5407 175.594 89.5636 175.672 89.57C175.751 89.5765 175.829 89.5664 175.904 89.5404C175.978 89.5144 176.046 89.473 176.103 89.419C176.16 89.365 176.206 89.2996 176.236 89.227C176.266 89.1544 176.281 89.0762 176.279 88.9975C176.277 88.9189 176.259 88.8415 176.225 88.7704C176.191 88.6993 176.143 88.636 176.083 88.5848C176.024 88.5336 175.954 88.4955 175.878 88.473C174.959 88.1204 174.079 87.6711 173.254 87.1325C174.035 85.578 174.298 85.4329 174.497 85.5974C174.982 85.8672 175.946 87.3249 176.907 87.47C177.017 87.4956 177.132 87.4815 177.233 87.4302C177.333 87.379 177.412 87.294 177.456 87.1901C177.5 87.0862 177.506 86.9702 177.472 86.8625C177.439 86.7548 177.369 86.6623 177.274 86.6014C176.785 86.3437 176.32 86.043 175.884 85.7027C176.306 85.4415 176.783 85.0986 177.234 85.2287C177.686 85.3587 177.999 85.8844 178.334 86.2048C182.934 90.6273 190 91.5798 193.329 89.8598C192.377 91.2745 191.695 92.8535 191.319 94.5167C190.846 94.3354 190.338 94.2689 189.835 94.3226C189.332 94.3762 188.848 94.5485 188.425 94.8252C186.705 96.0851 184.94 96.2098 182.855 96.2582C180.682 96.3194 178.775 96.0174 177.167 94.4221ZM177 117.796C176.512 118.635 175.919 119.409 175.236 120.098C174.728 120.743 170.134 126.516 168.347 128.757C168.364 126.879 166.917 122.63 166.98 122.361C167.042 122.092 173.072 117.576 176.143 115.325C176.251 115.4 177.46 116.615 177 117.796Z" fill="black"/>
<path d="M164.256 122.526C164.197 122.265 162.004 119.698 161.536 118.893C160.939 117.867 160.631 116.652 160.031 115.651C159.422 114.628 158.174 115.436 157.436 116.091C156.361 117.046 157.147 119.662 157.329 120.889C157.734 123.294 158.294 125.67 159.006 128.003C159.039 128.111 159.103 128.208 159.19 128.281C159.277 128.354 159.383 128.401 159.495 128.415C159.608 128.43 159.722 128.412 159.825 128.363C159.928 128.315 160.014 128.238 160.074 128.141C160.771 127.084 164.316 122.787 164.256 122.526ZM159.798 126.485C159.435 125.212 159.081 123.938 158.775 122.65C158.572 121.809 157.7 117.52 158.159 116.856C158.418 116.627 158.714 116.443 159.035 116.312C159.446 116.329 159.346 116.442 159.543 116.859C160.466 118.839 161.749 120.631 163.326 122.143C163.336 122.151 163.346 122.158 163.357 122.163L163.34 122.174C161.98 123.454 160.79 124.903 159.798 126.485Z" fill="black"/>
<path d="M202.056 70.9506C202.8 70.7275 203.596 70.7554 204.322 71.0302C204.679 71.1773 204.975 71.4412 205.162 71.7787C205.349 72.1162 205.416 72.5072 205.352 72.8878C204.776 75.0818 199.588 74.0799 194.266 76.9663C196.001 74.0418 198.788 71.8901 202.056 70.9506Z" fill="#288CFF"/>
<path d="M159.101 62.3365C157.977 61.6102 156.927 60.7764 155.964 59.8468C155.694 59.5863 155.503 59.2546 155.413 58.8902C155.323 58.5258 155.339 58.1434 155.457 57.7871C155.694 57.4428 156.043 57.1907 156.444 57.0732C156.845 56.9558 157.275 56.9801 157.66 57.1421C158.377 57.4315 159.024 57.8713 159.556 58.4319C160.088 58.9926 160.494 59.6609 160.746 60.3919C161.189 62.0774 161.222 63.8449 160.839 65.5454C161.057 64.2307 160.063 63.1084 159.101 62.3365Z" fill="#288CFF"/>
<path d="M144.511 68.2533C144.286 67.5807 144.32 66.8485 144.604 66.199C144.889 65.5495 145.406 65.0291 146.053 64.7392C147.042 64.4012 148.095 64.2927 149.132 64.422C150.169 64.5512 151.163 64.9148 152.039 65.4852C154.333 67.1439 156.684 69.5638 156.446 72.5802C155.887 71.8524 155.187 71.2456 154.387 70.7968C153.587 70.3479 152.704 70.0663 151.791 69.969C149.399 69.7766 145.847 71.0849 144.511 68.2533Z" fill="#288CFF"/>
<path d="M162.598 125.702C163.217 124.621 163.991 123.636 164.897 122.78C165.002 122.737 165.116 122.721 165.229 122.733C165.341 122.745 165.449 122.785 165.542 122.849C165.896 124.012 165.941 125.246 165.672 126.431C165.167 127.208 164.507 127.117 163.577 126.995C162.34 126.829 162.171 126.382 162.598 125.702Z" fill="#288CFF"/>
<path d="M245.546 239.03C245.585 238.904 245.579 238.767 245.528 238.646C245.297 238.185 244.99 237.768 244.622 237.409C219.724 210.576 221.506 212.156 220.535 211.536C220.554 211.478 220.562 211.417 220.558 211.357C220.553 211.296 220.535 211.237 220.508 211.184C220.479 211.13 220.44 211.082 220.392 211.044C220.345 211.006 220.291 210.978 220.232 210.962C219.322 210.824 218.392 210.862 217.497 211.076C216.722 211.208 213.409 211.605 208.983 212.693C208.015 212.885 207.073 213.192 206.177 213.605C206.099 213.65 206.038 213.721 206.004 213.805C205.97 213.889 205.964 213.982 205.989 214.069C206.013 214.156 206.065 214.233 206.138 214.287C206.21 214.341 206.299 214.371 206.39 214.37C207.552 214.24 208.702 214.016 209.828 213.697C211.706 213.341 214.913 212.693 216.809 212.434C217.875 212.39 218.932 212.226 219.962 211.949C220.405 212.835 220.986 213.646 221.684 214.349C222.874 215.72 243.132 238.172 244.528 239.072C242.091 240.251 239.921 241.564 234.369 243.981C215.521 252.188 226.306 247.524 220.01 250.372C219.267 250.674 218.568 251.071 217.927 251.553C208.948 241.508 211.336 241.512 202.952 232.132C201.566 230.581 201.381 230.245 200.783 230.042C200.698 230.019 200.609 230.018 200.523 230.039C200.439 230.061 200.361 230.105 200.298 230.167C200.235 230.228 200.19 230.305 200.166 230.39C200.142 230.474 200.14 230.564 200.162 230.648C200.509 231.456 201.043 232.169 201.718 232.731C208.473 240.142 209.511 243.576 213.187 248.019C214.527 249.619 216.005 251.099 217.603 252.443C217.656 252.469 217.712 252.488 217.77 252.496C218.321 253.127 219.029 252.263 223.58 250.151C230.659 246.872 240.652 243.107 245.365 239.674C245.421 239.646 245.471 239.606 245.51 239.557C245.55 239.509 245.579 239.453 245.596 239.392C245.613 239.331 245.617 239.267 245.609 239.205C245.6 239.143 245.578 239.083 245.546 239.03Z" fill="black"/>
<path d="M211.702 223.919L211.62 223.871C211.48 224.109 206.258 226.18 205.277 226.608C199.188 229.247 192.907 231.688 186.558 232.424C184.245 232.846 181.868 232.768 179.587 232.197C179.554 232.178 179.511 232.174 179.479 232.155C179.419 232.121 179.367 232.073 179.327 232.016C179.287 231.96 179.26 231.896 179.248 231.827C179.235 231.759 179.238 231.689 179.255 231.623C179.273 231.555 179.304 231.493 179.348 231.44C177.898 228.487 174.085 219.249 173.6 218.052C171.527 212.94 168.237 203.694 168.562 198.158C168.567 198.061 168.597 197.968 168.649 197.886C168.701 197.804 168.773 197.738 168.858 197.693L168.724 197.614C168.637 197.556 168.57 197.471 168.534 197.373C168.498 197.274 168.495 197.165 168.525 197.065C168.554 196.964 168.615 196.875 168.699 196.812C168.783 196.748 168.885 196.713 168.99 196.712C170.346 196.654 171.694 196.47 173.016 196.164C173.439 196.081 189.002 193.352 189.183 193.305C189.954 193.144 190.738 193.054 191.525 193.038C191.638 193.042 191.745 193.086 191.827 193.162C191.91 193.239 191.963 193.341 191.977 193.452C191.991 193.564 191.964 193.677 191.903 193.771C191.842 193.865 191.749 193.934 191.641 193.966C190.862 194.244 190.058 194.443 189.24 194.563C184.163 195.51 171.552 197.79 171.117 197.862C169.646 198.1 169.687 197.866 169.726 198.014C170.71 204.811 170.417 206.664 176.719 222.167C178.031 225.394 178.859 227.059 180.282 231.161C181.664 230.988 182.512 231.324 185.799 231.004C195.378 230.069 204.961 224.811 210.761 223.118C209.336 221.785 208.014 220.345 206.806 218.813C202.303 213.422 198.404 207.554 195.18 201.314C193.858 199.03 192.778 196.615 191.957 194.107C191.923 193.965 191.941 193.815 192.009 193.685C192.077 193.555 192.189 193.454 192.325 193.4C192.461 193.346 192.612 193.343 192.751 193.391C192.889 193.439 193.005 193.535 193.078 193.663C194.562 196.333 198.278 206.064 207.43 217.15C209.106 219.178 210.885 220.902 212.425 223.104C212.713 223.522 212.131 224.171 211.702 223.919Z" fill="black"/>
<path d="M190.672 203.753L199.811 217.815L191.071 220.851M188.667 200.256L181.95 201.821M181.95 201.821L175.233 203.386L183.059 223.635L191.071 220.851M181.95 201.821L185.151 209.208L181.045 210.277M182.188 213.267L186.547 211.768L191.071 220.851" stroke="#288CFF" stroke-linecap="round" stroke-linejoin="round"/>
<path d="M196.587 212.443L190.859 214.299" stroke="#288CFF" stroke-linecap="round" stroke-linejoin="round"/>
<path d="M220.678 220.788L234.026 235.581L230.294 237.739M217.687 221.931L214.444 223.506L219.215 229.206L211.537 233.395L219.101 244.213L226.563 239.897M226.563 239.897L221.474 232.271M226.563 239.897L230.294 237.739M230.294 237.739L226.798 233.078M225.608 234.118L227.736 232.468" stroke="#288CFF" stroke-linecap="round" stroke-linejoin="round"/>
</svg>
