<svg width="296" height="251" viewBox="0 0 296 251" fill="none" xmlns="http://www.w3.org/2000/svg">
<path fill-rule="evenodd" clip-rule="evenodd" d="M15 0C6.71573 0 0 6.71572 0 15V153C2.76142 153 5 155.239 5 158C5 160.761 2.76142 163 0 163V236C0 244.284 6.71573 251 15 251H281C289.284 251 296 244.284 296 236V163C293.239 163 291 160.761 291 158C291 155.239 293.239 153 296 153V15C296 6.71573 289.284 0 281 0H15ZM14.5 157C13.6716 157 13 157.672 13 158.5C13 159.328 13.6716 160 14.5 160H16.5227C17.3512 160 18.0227 159.328 18.0227 158.5C18.0227 157.672 17.3512 157 16.5227 157H14.5ZM24.6136 157C23.7852 157 23.1136 157.672 23.1136 158.5C23.1136 159.328 23.7852 160 24.6136 160H28.6591C29.4875 160 30.1591 159.328 30.1591 158.5C30.1591 157.672 29.4875 157 28.6591 157H24.6136ZM36.75 157C35.9216 157 35.25 157.672 35.25 158.5C35.25 159.328 35.9216 160 36.75 160H40.7955C41.6239 160 42.2955 159.328 42.2955 158.5C42.2955 157.672 41.6239 157 40.7955 157H36.75ZM48.8864 157C48.0579 157 47.3864 157.672 47.3864 158.5C47.3864 159.328 48.0579 160 48.8864 160H52.9318C53.7603 160 54.4318 159.328 54.4318 158.5C54.4318 157.672 53.7603 157 52.9318 157H48.8864ZM61.0227 157C60.1943 157 59.5227 157.672 59.5227 158.5C59.5227 159.328 60.1943 160 61.0227 160H65.0682C65.8966 160 66.5682 159.328 66.5682 158.5C66.5682 157.672 65.8966 157 65.0682 157H61.0227ZM73.1591 157C72.3307 157 71.6591 157.672 71.6591 158.5C71.6591 159.328 72.3307 160 73.1591 160H77.2046C78.033 160 78.7046 159.328 78.7046 158.5C78.7046 157.672 78.033 157 77.2046 157H73.1591ZM85.2955 157C84.467 157 83.7955 157.672 83.7955 158.5C83.7955 159.328 84.467 160 85.2955 160H89.3409C90.1693 160 90.8409 159.328 90.8409 158.5C90.8409 157.672 90.1693 157 89.3409 157H85.2955ZM97.4318 157C96.6034 157 95.9318 157.672 95.9318 158.5C95.9318 159.328 96.6034 160 97.4318 160H101.477C102.306 160 102.977 159.328 102.977 158.5C102.977 157.672 102.306 157 101.477 157H97.4318ZM109.568 157C108.74 157 108.068 157.672 108.068 158.5C108.068 159.328 108.74 160 109.568 160H113.614C114.442 160 115.114 159.328 115.114 158.5C115.114 157.672 114.442 157 113.614 157H109.568ZM121.705 157C120.876 157 120.205 157.672 120.205 158.5C120.205 159.328 120.876 160 121.705 160H125.75C126.578 160 127.25 159.328 127.25 158.5C127.25 157.672 126.578 157 125.75 157H121.705ZM133.841 157C133.013 157 132.341 157.672 132.341 158.5C132.341 159.328 133.013 160 133.841 160H137.886C138.715 160 139.386 159.328 139.386 158.5C139.386 157.672 138.715 157 137.886 157H133.841ZM145.977 157C145.149 157 144.477 157.672 144.477 158.5C144.477 159.328 145.149 160 145.977 160H150.023C150.851 160 151.523 159.328 151.523 158.5C151.523 157.672 150.851 157 150.023 157H145.977ZM158.114 157C157.285 157 156.614 157.672 156.614 158.5C156.614 159.328 157.285 160 158.114 160H162.159C162.988 160 163.659 159.328 163.659 158.5C163.659 157.672 162.988 157 162.159 157H158.114ZM170.25 157C169.422 157 168.75 157.672 168.75 158.5C168.75 159.328 169.422 160 170.25 160H174.295C175.124 160 175.795 159.328 175.795 158.5C175.795 157.672 175.124 157 174.295 157H170.25ZM182.386 157C181.558 157 180.886 157.672 180.886 158.5C180.886 159.328 181.558 160 182.386 160H186.432C187.26 160 187.932 159.328 187.932 158.5C187.932 157.672 187.26 157 186.432 157H182.386ZM194.523 157C193.694 157 193.023 157.672 193.023 158.5C193.023 159.328 193.694 160 194.523 160H198.568C199.397 160 200.068 159.328 200.068 158.5C200.068 157.672 199.397 157 198.568 157H194.523ZM206.659 157C205.831 157 205.159 157.672 205.159 158.5C205.159 159.328 205.831 160 206.659 160H210.705C211.533 160 212.205 159.328 212.205 158.5C212.205 157.672 211.533 157 210.705 157H206.659ZM218.796 157C217.967 157 217.296 157.672 217.296 158.5C217.296 159.328 217.967 160 218.796 160H222.841C223.669 160 224.341 159.328 224.341 158.5C224.341 157.672 223.669 157 222.841 157H218.796ZM230.932 157C230.103 157 229.432 157.672 229.432 158.5C229.432 159.328 230.103 160 230.932 160H234.977C235.806 160 236.477 159.328 236.477 158.5C236.477 157.672 235.806 157 234.977 157H230.932ZM243.068 157C242.24 157 241.568 157.672 241.568 158.5C241.568 159.328 242.24 160 243.068 160H247.114C247.942 160 248.614 159.328 248.614 158.5C248.614 157.672 247.942 157 247.114 157H243.068ZM255.205 157C254.376 157 253.705 157.672 253.705 158.5C253.705 159.328 254.376 160 255.205 160H259.25C260.078 160 260.75 159.328 260.75 158.5C260.75 157.672 260.078 157 259.25 157H255.205ZM267.341 157C266.513 157 265.841 157.672 265.841 158.5C265.841 159.328 266.513 160 267.341 160H271.386C272.215 160 272.886 159.328 272.886 158.5C272.886 157.672 272.215 157 271.386 157H267.341ZM279.477 157C278.649 157 277.977 157.672 277.977 158.5C277.977 159.328 278.649 160 279.477 160H281.5C282.328 160 283 159.328 283 158.5C283 157.672 282.328 157 281.5 157H279.477Z" fill="#F1F1F1"/>
</svg>
