<svg width="19" height="24" viewBox="0 0 19 24" fill="none" xmlns="http://www.w3.org/2000/svg">
<path d="M17.1429 24H1.03896C0.465164 24 0 23.5478 0 22.9899V1.0101C0 0.452242 0.465164 0 1.03896 0H12.5331C12.8224 0 13.0988 0.117364 13.2954 0.323828L17.9052 5.1641C18.083 5.35082 18.1818 5.59591 18.1818 5.85037V22.9899C18.1818 23.5478 17.7167 24 17.1429 24Z" fill="#288CFF"/>
<path d="M12 2.20711C12 1.76165 12.5386 1.53857 12.8536 1.85355L16.1464 5.14645C16.4614 5.46143 16.2383 6 15.7929 6H12.5C12.2239 6 12 5.77614 12 5.5V2.20711Z" fill="white"/>
<path d="M5.058 17.5C5.058 17.74 5.028 17.956 4.968 18.148C4.908 18.34 4.82 18.503 4.704 18.637C4.59 18.769 4.447 18.871 4.275 18.943C4.105 19.013 3.909 19.048 3.687 19.048C3.487 19.048 3.281 19.02 3.069 18.964L3.105 18.586C3.109 18.55 3.122 18.521 3.144 18.499C3.168 18.475 3.203 18.463 3.249 18.463C3.283 18.463 3.329 18.472 3.387 18.49C3.447 18.506 3.525 18.514 3.621 18.514C3.749 18.514 3.862 18.495 3.96 18.457C4.06 18.419 4.144 18.36 4.212 18.28C4.28 18.198 4.331 18.094 4.365 17.968C4.401 17.842 4.419 17.691 4.419 17.515V14.692H5.058V17.5ZM7.38483 16.909C7.54683 16.909 7.68883 16.888 7.81083 16.846C7.93483 16.804 8.03783 16.745 8.11983 16.669C8.20383 16.591 8.26683 16.499 8.30883 16.393C8.35083 16.285 8.37183 16.166 8.37183 16.036C8.37183 15.774 8.28983 15.568 8.12583 15.418C7.96383 15.268 7.71683 15.193 7.38483 15.193H6.71883V16.909H7.38483ZM7.38483 14.692C7.66083 14.692 7.90083 14.724 8.10483 14.788C8.30883 14.852 8.47783 14.943 8.61183 15.061C8.74583 15.177 8.84483 15.318 8.90883 15.484C8.97483 15.65 9.00783 15.834 9.00783 16.036C9.00783 16.238 8.97283 16.424 8.90283 16.594C8.83283 16.762 8.72983 16.907 8.59383 17.029C8.45783 17.151 8.28783 17.246 8.08383 17.314C7.88183 17.38 7.64883 17.413 7.38483 17.413H6.71883V19H6.07983V14.692H7.38483ZM13.2286 16.903V18.583C13.0106 18.739 12.7786 18.856 12.5326 18.934C12.2866 19.01 12.0186 19.048 11.7286 19.048C11.3806 19.048 11.0656 18.994 10.7836 18.886C10.5036 18.778 10.2646 18.627 10.0666 18.433C9.86864 18.239 9.71564 18.007 9.60764 17.737C9.50164 17.467 9.44864 17.17 9.44864 16.846C9.44864 16.52 9.49964 16.222 9.60164 15.952C9.70564 15.68 9.85364 15.448 10.0456 15.256C10.2376 15.062 10.4696 14.912 10.7416 14.806C11.0156 14.698 11.3226 14.644 11.6626 14.644C11.8346 14.644 11.9936 14.657 12.1396 14.683C12.2876 14.709 12.4246 14.746 12.5506 14.794C12.6766 14.842 12.7926 14.9 12.8986 14.968C13.0066 15.034 13.1066 15.109 13.1986 15.193L13.0156 15.481C12.9876 15.527 12.9506 15.556 12.9046 15.568C12.8586 15.58 12.8086 15.569 12.7546 15.535C12.7026 15.505 12.6446 15.47 12.5806 15.43C12.5186 15.39 12.4436 15.353 12.3556 15.319C12.2696 15.285 12.1686 15.256 12.0526 15.232C11.9366 15.208 11.7996 15.196 11.6416 15.196C11.4056 15.196 11.1926 15.235 11.0026 15.313C10.8126 15.389 10.6506 15.499 10.5166 15.643C10.3826 15.787 10.2796 15.961 10.2076 16.165C10.1356 16.367 10.0996 16.594 10.0996 16.846C10.0996 17.11 10.1376 17.347 10.2136 17.557C10.2896 17.765 10.3966 17.942 10.5346 18.088C10.6746 18.232 10.8436 18.342 11.0416 18.418C11.2416 18.494 11.4646 18.532 11.7106 18.532C11.8066 18.532 11.8956 18.527 11.9776 18.517C12.0616 18.505 12.1416 18.489 12.2176 18.469C12.2936 18.449 12.3666 18.424 12.4366 18.394C12.5086 18.364 12.5796 18.331 12.6496 18.295V17.392H12.0136C11.9736 17.392 11.9406 17.38 11.9146 17.356C11.8906 17.332 11.8786 17.302 11.8786 17.266V16.903H13.2286Z" fill="white"/>
</svg>
