<svg width="19" height="24" viewBox="0 0 19 24" fill="none" xmlns="http://www.w3.org/2000/svg">
<path d="M17.1429 24H1.03896C0.465164 24 0 23.5478 0 22.9899V1.0101C0 0.452242 0.465164 0 1.03896 0H12.5331C12.8224 0 13.0988 0.117364 13.2954 0.323828L17.9052 5.1641C18.083 5.35082 18.1818 5.59591 18.1818 5.85037V22.9899C18.1818 23.5478 17.7167 24 17.1429 24Z" fill="#C14BD7"/>
<path d="M12 2.20711C12 1.76165 12.5386 1.53857 12.8536 1.85355L16.1464 5.14645C16.4614 5.46143 16.2383 6 15.7929 6H12.5C12.2239 6 12 5.77614 12 5.5V2.20711Z" fill="white"/>
<path d="M7.061 14.692V19H6.503V15.934C6.503 15.888 6.504 15.839 6.506 15.787C6.51 15.735 6.514 15.682 6.518 15.628L5.084 18.259C5.034 18.357 4.957 18.406 4.853 18.406H4.763C4.659 18.406 4.583 18.357 4.535 18.259L3.074 15.619C3.086 15.731 3.092 15.836 3.092 15.934V19H2.531V14.692H3.005C3.061 14.692 3.104 14.698 3.134 14.71C3.166 14.72 3.196 14.75 3.224 14.8L4.664 17.38C4.692 17.432 4.718 17.487 4.742 17.545C4.766 17.603 4.789 17.661 4.811 17.719C4.853 17.601 4.902 17.487 4.958 17.377L6.371 14.8C6.397 14.75 6.425 14.72 6.455 14.71C6.487 14.698 6.531 14.692 6.587 14.692H7.061ZM9.4317 16.909C9.5937 16.909 9.7357 16.888 9.8577 16.846C9.9817 16.804 10.0847 16.745 10.1667 16.669C10.2507 16.591 10.3137 16.499 10.3557 16.393C10.3977 16.285 10.4187 16.166 10.4187 16.036C10.4187 15.774 10.3367 15.568 10.1727 15.418C10.0107 15.268 9.7637 15.193 9.4317 15.193H8.7657V16.909H9.4317ZM9.4317 14.692C9.7077 14.692 9.9477 14.724 10.1517 14.788C10.3557 14.852 10.5247 14.943 10.6587 15.061C10.7927 15.177 10.8917 15.318 10.9557 15.484C11.0217 15.65 11.0547 15.834 11.0547 16.036C11.0547 16.238 11.0197 16.424 10.9497 16.594C10.8797 16.762 10.7767 16.907 10.6407 17.029C10.5047 17.151 10.3347 17.246 10.1307 17.314C9.9287 17.38 9.6957 17.413 9.4317 17.413H8.7657V19H8.1267V14.692H9.4317ZM13.4065 17.428V15.748C13.4065 15.69 13.4075 15.629 13.4095 15.565C13.4135 15.499 13.4205 15.431 13.4305 15.361L11.9215 17.428H13.4065ZM14.5435 17.428V17.767C14.5435 17.801 14.5325 17.83 14.5105 17.854C14.4885 17.878 14.4575 17.89 14.4175 17.89H13.9195V19H13.4065V17.89H11.5165C11.4725 17.89 11.4355 17.878 11.4055 17.854C11.3755 17.828 11.3555 17.796 11.3455 17.758L11.2855 17.458L13.3675 14.689H13.9195V17.428H14.5435Z" fill="white"/>
</svg>
