<svg width="19" height="24" viewBox="0 0 19 24" fill="none" xmlns="http://www.w3.org/2000/svg">
<path d="M17.1429 24H1.03896C0.465164 24 0 23.5478 0 22.9899V1.0101C0 0.452242 0.465164 0 1.03896 0H12.5331C12.8224 0 13.0988 0.117364 13.2954 0.323828L17.9052 5.1641C18.083 5.35082 18.1818 5.59591 18.1818 5.85037V22.9899C18.1818 23.5478 17.7167 24 17.1429 24Z" fill="#E74746"/>
<path d="M12 2.20711C12 1.76165 12.5386 1.53857 12.8536 1.85355L16.1464 5.14645C16.4614 5.46143 16.2383 6 15.7929 6H12.5C12.2239 6 12 5.77614 12 5.5V2.20711Z" fill="white"/>
<path d="M4.836 16.909C4.998 16.909 5.14 16.888 5.262 16.846C5.386 16.804 5.489 16.745 5.571 16.669C5.655 16.591 5.718 16.499 5.76 16.393C5.802 16.285 5.823 16.166 5.823 16.036C5.823 15.774 5.741 15.568 5.577 15.418C5.415 15.268 5.168 15.193 4.836 15.193H4.17V16.909H4.836ZM4.836 14.692C5.112 14.692 5.352 14.724 5.556 14.788C5.76 14.852 5.929 14.943 6.063 15.061C6.197 15.177 6.296 15.318 6.36 15.484C6.426 15.65 6.459 15.834 6.459 16.036C6.459 16.238 6.424 16.424 6.354 16.594C6.284 16.762 6.181 16.907 6.045 17.029C5.909 17.151 5.739 17.246 5.535 17.314C5.333 17.38 5.1 17.413 4.836 17.413H4.17V19H3.531V14.692H4.836ZM10.9228 16.846C10.9228 17.168 10.8708 17.461 10.7668 17.725C10.6648 17.989 10.5198 18.216 10.3318 18.406C10.1438 18.594 9.91881 18.74 9.65681 18.844C9.39481 18.948 9.10381 19 8.78381 19H7.16381V14.692H8.78381C9.10381 14.692 9.39481 14.744 9.65681 14.848C9.91881 14.952 10.1438 15.099 10.3318 15.289C10.5198 15.477 10.6648 15.704 10.7668 15.97C10.8708 16.234 10.9228 16.526 10.9228 16.846ZM10.2688 16.846C10.2688 16.59 10.2338 16.361 10.1638 16.159C10.0938 15.955 9.99381 15.783 9.86381 15.643C9.73581 15.501 9.57981 15.393 9.39581 15.319C9.21381 15.245 9.00981 15.208 8.78381 15.208H7.80581V18.484H8.78381C9.00981 18.484 9.21381 18.447 9.39581 18.373C9.57981 18.299 9.73581 18.192 9.86381 18.052C9.99381 17.91 10.0938 17.738 10.1638 17.536C10.2338 17.334 10.2688 17.104 10.2688 16.846ZM12.3703 15.211V16.654H14.0983V17.173H12.3703V19H11.7283V14.692H14.3983V15.211H12.3703Z" fill="white"/>
</svg>
