<svg width="19" height="24" viewBox="0 0 19 24" fill="none" xmlns="http://www.w3.org/2000/svg">
<path d="M17.1429 24H1.03896C0.465164 24 0 23.5478 0 22.9899V1.0101C0 0.452242 0.465164 0 1.03896 0H12.5331C12.8224 0 13.0988 0.117364 13.2954 0.323828L17.9052 5.1641C18.083 5.35082 18.1818 5.59591 18.1818 5.85037V22.9899C18.1818 23.5478 17.7167 24 17.1429 24Z" fill="#F68038"/>
<path d="M12 2.20711C12 1.76165 12.5386 1.53857 12.8536 1.85355L16.1464 5.14645C16.4614 5.46143 16.2383 6 15.7929 6H12.5C12.2239 6 12 5.77614 12 5.5V2.20711Z" fill="white"/>
<path d="M5.836 16.909C5.998 16.909 6.14 16.888 6.262 16.846C6.386 16.804 6.489 16.745 6.571 16.669C6.655 16.591 6.718 16.499 6.76 16.393C6.802 16.285 6.823 16.166 6.823 16.036C6.823 15.774 6.741 15.568 6.577 15.418C6.415 15.268 6.168 15.193 5.836 15.193H5.17V16.909H5.836ZM5.836 14.692C6.112 14.692 6.352 14.724 6.556 14.788C6.76 14.852 6.929 14.943 7.063 15.061C7.197 15.177 7.296 15.318 7.36 15.484C7.426 15.65 7.459 15.834 7.459 16.036C7.459 16.238 7.424 16.424 7.354 16.594C7.284 16.762 7.181 16.907 7.045 17.029C6.909 17.151 6.739 17.246 6.535 17.314C6.333 17.38 6.1 17.413 5.836 17.413H5.17V19H4.531V14.692H5.836ZM9.46881 16.909C9.63081 16.909 9.77281 16.888 9.89481 16.846C10.0188 16.804 10.1218 16.745 10.2038 16.669C10.2878 16.591 10.3508 16.499 10.3928 16.393C10.4348 16.285 10.4558 16.166 10.4558 16.036C10.4558 15.774 10.3738 15.568 10.2098 15.418C10.0478 15.268 9.80081 15.193 9.46881 15.193H8.80281V16.909H9.46881ZM9.46881 14.692C9.74481 14.692 9.98481 14.724 10.1888 14.788C10.3928 14.852 10.5618 14.943 10.6958 15.061C10.8298 15.177 10.9288 15.318 10.9928 15.484C11.0588 15.65 11.0918 15.834 11.0918 16.036C11.0918 16.238 11.0568 16.424 10.9868 16.594C10.9168 16.762 10.8138 16.907 10.6778 17.029C10.5418 17.151 10.3718 17.246 10.1678 17.314C9.96581 17.38 9.73281 17.413 9.46881 17.413H8.80281V19H8.16381V14.692H9.46881ZM14.7336 15.226H13.3656V19H12.7296V15.226H11.3556V14.692H14.7336V15.226Z" fill="white"/>
</svg>
