<svg width="74" height="74" viewBox="0 0 74 74" fill="none" xmlns="http://www.w3.org/2000/svg">
<path d="M52.4163 14.8001C52.0757 14.8001 51.7996 15.0762 51.7996 15.4168V21.5834C51.7996 21.924 52.0757 22.2001 52.4163 22.2001H58.5829C58.9235 22.2001 59.1996 21.924 59.1996 21.5834V15.4168C59.1996 15.0762 58.9235 14.8001 58.5829 14.8001H52.4163ZM51.7996 59.2001V57.3501C51.7996 56.3284 52.6279 55.5001 53.6496 55.5001C54.6713 55.5001 55.4996 56.3284 55.4996 57.3501V59.2001H59.1996V57.3501C59.1996 56.3284 60.0279 55.5001 61.0496 55.5001C62.0713 55.5001 62.8996 56.3284 62.8996 57.3501V61.0501C62.8996 62.0718 62.0713 62.9001 61.0496 62.9001H46.2496C45.2279 62.9001 44.3996 62.0718 44.3996 61.0501V57.3501C44.3996 56.3284 45.2279 55.5001 46.2496 55.5001C47.2713 55.5001 48.0996 56.3284 48.0996 57.3501V59.2001H51.7996ZM40.6996 33.3001H42.5496C43.5713 33.3001 44.3996 34.1284 44.3996 35.1501C44.3996 36.1718 43.5713 37.0001 42.5496 37.0001H35.1496C34.1279 37.0001 33.2996 36.1718 33.2996 35.1501C33.2996 34.1284 34.1279 33.3001 35.1496 33.3001H36.9996V29.6001H31.4496C30.4279 29.6001 29.5996 28.7718 29.5996 27.7501C29.5996 26.7284 30.4279 25.9001 31.4496 25.9001H42.5496C43.5713 25.9001 44.3996 26.7284 44.3996 27.7501C44.3996 28.7718 43.5713 29.6001 42.5496 29.6001H40.6996V33.3001ZM59.1996 37.0001H57.3496C56.3279 37.0001 55.4996 36.1718 55.4996 35.1501C55.4996 34.1284 56.3279 33.3001 57.3496 33.3001H59.1996V31.4501C59.1996 30.4284 60.0279 29.6001 61.0496 29.6001C62.0713 29.6001 62.8996 30.4284 62.8996 31.4501V38.8501C62.8996 39.8718 62.0713 40.7001 61.0496 40.7001C60.0279 40.7001 59.1996 39.8718 59.1996 38.8501V37.0001ZM40.6996 44.4001H38.8496C37.8279 44.4001 36.9996 43.5718 36.9996 42.5501C36.9996 41.5284 37.8279 40.7001 38.8496 40.7001H42.5496C43.5713 40.7001 44.3996 41.5284 44.3996 42.5501V49.9501C44.3996 50.9718 43.5713 51.8001 42.5496 51.8001H31.4496C30.4279 51.8001 29.5996 50.9718 29.5996 49.9501C29.5996 48.9284 30.4279 48.1001 31.4496 48.1001H40.6996V44.4001ZM52.4163 11.1001H58.5829C60.967 11.1001 62.8996 13.0327 62.8996 15.4168V21.5834C62.8996 23.9675 60.967 25.9001 58.5829 25.9001H52.4163C50.0322 25.9001 48.0996 23.9675 48.0996 21.5834V15.4168C48.0996 13.0327 50.0322 11.1001 52.4163 11.1001ZM15.4163 11.1001H21.5829C23.967 11.1001 25.8996 13.0327 25.8996 15.4168V21.5834C25.8996 23.9675 23.967 25.9001 21.5829 25.9001H15.4163C13.0322 25.9001 11.0996 23.9675 11.0996 21.5834V15.4168C11.0996 13.0327 13.0322 11.1001 15.4163 11.1001ZM15.4163 14.8001C15.0757 14.8001 14.7996 15.0762 14.7996 15.4168V21.5834C14.7996 21.924 15.0757 22.2001 15.4163 22.2001H21.5829C21.9235 22.2001 22.1996 21.924 22.1996 21.5834V15.4168C22.1996 15.0762 21.9235 14.8001 21.5829 14.8001H15.4163ZM15.4163 48.1001H21.5829C23.967 48.1001 25.8996 50.0327 25.8996 52.4168V58.5834C25.8996 60.9675 23.967 62.9001 21.5829 62.9001H15.4163C13.0322 62.9001 11.0996 60.9675 11.0996 58.5834V52.4168C11.0996 50.0327 13.0322 48.1001 15.4163 48.1001ZM15.4163 51.8001C15.0757 51.8001 14.7996 52.0762 14.7996 52.4168V58.5834C14.7996 58.924 15.0757 59.2001 15.4163 59.2001H21.5829C21.9235 59.2001 22.1996 58.924 22.1996 58.5834V52.4168C22.1996 52.0762 21.9235 51.8001 21.5829 51.8001H15.4163ZM40.6996 14.8001H31.4496C30.4279 14.8001 29.5996 13.9718 29.5996 12.9501C29.5996 11.9284 30.4279 11.1001 31.4496 11.1001H42.5496C43.5713 11.1001 44.3996 11.9284 44.3996 12.9501V20.3501C44.3996 21.3718 43.5713 22.2001 42.5496 22.2001C41.5279 22.2001 40.6996 21.3718 40.6996 20.3501V14.8001ZM31.4496 22.2001C30.4279 22.2001 29.5996 21.3718 29.5996 20.3501C29.5996 19.3284 30.4279 18.5001 31.4496 18.5001H35.1496C36.1713 18.5001 36.9996 19.3284 36.9996 20.3501C36.9996 21.3718 36.1713 22.2001 35.1496 22.2001H31.4496ZM12.9496 44.4001C11.9279 44.4001 11.0996 43.5718 11.0996 42.5501C11.0996 41.5284 11.9279 40.7001 12.9496 40.7001H20.3496C21.3713 40.7001 22.1996 41.5284 22.1996 42.5501C22.1996 43.5718 21.3713 44.4001 20.3496 44.4001H12.9496ZM27.7496 44.4001C26.7279 44.4001 25.8996 43.5718 25.8996 42.5501C25.8996 41.5284 26.7279 40.7001 27.7496 40.7001H31.4496C32.4713 40.7001 33.2996 41.5284 33.2996 42.5501C33.2996 43.5718 32.4713 44.4001 31.4496 44.4001H27.7496ZM33.2996 59.2001V61.0501C33.2996 62.0718 32.4713 62.9001 31.4496 62.9001C30.4279 62.9001 29.5996 62.0718 29.5996 61.0501V57.3501C29.5996 56.3284 30.4279 55.5001 31.4496 55.5001H38.8496C39.8713 55.5001 40.6996 56.3284 40.6996 57.3501C40.6996 58.3718 39.8713 59.2001 38.8496 59.2001H33.2996ZM25.8996 33.3001H27.7496C28.7713 33.3001 29.5996 34.1284 29.5996 35.1501C29.5996 36.1718 28.7713 37.0001 27.7496 37.0001H24.0496C23.0279 37.0001 22.1996 36.1718 22.1996 35.1501V33.3001H20.3496C19.3279 33.3001 18.4996 32.4718 18.4996 31.4501C18.4996 30.4284 19.3279 29.6001 20.3496 29.6001H24.0496C25.0713 29.6001 25.8996 30.4284 25.8996 31.4501V33.3001ZM11.0996 31.4501C11.0996 30.4284 11.9279 29.6001 12.9496 29.6001C13.9713 29.6001 14.7996 30.4284 14.7996 31.4501V35.1501C14.7996 36.1718 13.9713 37.0001 12.9496 37.0001C11.9279 37.0001 11.0996 36.1718 11.0996 35.1501V31.4501ZM48.0996 31.4501C48.0996 30.4284 48.9279 29.6001 49.9496 29.6001C50.9713 29.6001 51.7996 30.4284 51.7996 31.4501V38.8501C51.7996 39.8718 50.9713 40.7001 49.9496 40.7001C48.9279 40.7001 48.0996 39.8718 48.0996 38.8501V31.4501ZM55.4996 48.1001V46.2501C55.4996 45.2284 56.3279 44.4001 57.3496 44.4001H61.0496C62.0713 44.4001 62.8996 45.2284 62.8996 46.2501C62.8996 47.2718 62.0713 48.1001 61.0496 48.1001H59.1996V49.9501C59.1996 50.9718 58.3713 51.8001 57.3496 51.8001H49.9496C48.9279 51.8001 48.0996 50.9718 48.0996 49.9501V46.2501C48.0996 45.2284 48.9279 44.4001 49.9496 44.4001C50.9713 44.4001 51.7996 45.2284 51.7996 46.2501V48.1001H55.4996Z" fill="black"/>
<path d="M3.7 16.65C3.7 17.6717 2.87173 18.5 1.85 18.5C0.828273 18.5 0 17.6717 0 16.65V9.25C0 4.14137 4.14137 0 9.25 0H16.65C17.6717 0 18.5 0.828273 18.5 1.85C18.5 2.87173 17.6717 3.7 16.65 3.7H9.25C6.18482 3.7 3.7 6.18482 3.7 9.25V16.65ZM57.35 3.7C56.3283 3.7 55.5 2.87173 55.5 1.85C55.5 0.828273 56.3283 0 57.35 0H64.75C69.8586 0 74 4.14137 74 9.25V16.65C74 17.6717 73.1717 18.5 72.15 18.5C71.1283 18.5 70.3 17.6717 70.3 16.65V9.25C70.3 6.18482 67.8152 3.7 64.75 3.7H57.35ZM16.65 70.3C17.6717 70.3 18.5 71.1283 18.5 72.15C18.5 73.1717 17.6717 74 16.65 74H9.25C4.14137 74 0 69.8586 0 64.75V57.35C0 56.3283 0.828273 55.5 1.85 55.5C2.87173 55.5 3.7 56.3283 3.7 57.35V64.75C3.7 67.8152 6.18482 70.3 9.25 70.3H16.65ZM70.3 57.35C70.3 56.3283 71.1283 55.5 72.15 55.5C73.1717 55.5 74 56.3283 74 57.35V64.75C74 69.8586 69.8586 74 64.75 74H57.35C56.3283 74 55.5 73.1717 55.5 72.15C55.5 71.1283 56.3283 70.3 57.35 70.3H64.75C67.8152 70.3 70.3 67.8152 70.3 64.75V57.35Z" fill="#288CFF"/>
</svg>
